<svg xmlns="http://www.w3.org/2000/svg" viewBox="0 0 90 20" fill="none">
  <path d="M27.973 17.03c-.527-.71-.79-1.68-.79-2.91V6.83c0-1.25.28-2.23.84-2.93.56-.7 1.39-1.05 2.49-1.05 1.08 0 1.89.35 2.43 1.05.54.7.81 1.68.81 2.93v7.29c0 1.23-.28 2.2-.84 2.91-.56.71-1.38 1.07-2.46 1.07-1.1 0-1.93-.36-2.47-1.07zm3.43-1.07c.17-.29.25-.72.25-1.29V6.69c0-.55-.08-.98-.25-1.27-.17-.29-.43-.44-.79-.44s-.63.15-.8.44c-.17.29-.26.72-.26 1.27v8.08c0 .57.09 1 .26 1.29.17.29.44.43.8.43.36 0 .62-.14.79-.43z" fill="#282828"/>
  <path d="M17.15 10.98V7.03c0-1.3.28-2.3.84-3 .56-.7 1.37-1.05 2.43-1.05.73 0 1.33.18 1.79.53.46.35.79.88.99 1.57l-1.68.72c-.08-.34-.21-.6-.39-.78-.18-.18-.4-.27-.67-.27-.38 0-.66.15-.83.46-.17.31-.26.76-.26 1.35v1.09h2.03v1.68h-2.03v8.65h-1.89V12.66h-1.29v-1.68h.96z" fill="#282828"/>
  <path d="M41.94 3.15h1.89v7.22l2.28-7.22h1.89l-2.39 7.12 2.55 9.71h-1.93l-1.83-7.37-.57 1.74v5.63h-1.89V3.15z" fill="#282828"/>
  <path d="M10.68 0L8.5 7.42 6.23 0H4.01l3.4 11.6v8.38h2.01v-8.38L12.93 0h-2.25z" fill="#282828"/>
  <path d="M37.7 14.58c0 .57.07 1 .22 1.28.15.28.39.42.73.42.34 0 .58-.13.72-.4.14-.27.21-.68.22-1.23h1.79c-.01 1.1-.3 1.92-.86 2.46-.56.54-1.24.81-2.03.81-1.02 0-1.76-.34-2.22-1.03-.46-.69-.69-1.65-.69-2.89V7.06c0-1.28.24-2.27.73-2.96.49-.69 1.23-1.04 2.24-1.04.75 0 1.36.18 1.83.55.47.37.81.91 1.01 1.64.2.73.3 1.66.3 2.79v2.55H37.7v3.99zm0-7.95c-.14.28-.21.7-.22 1.25v1.97h1.84V7.88c0-.56-.07-.98-.21-1.26-.14-.28-.38-.42-.71-.42-.33 0-.56.14-.7.43z" fill="#282828"/>
  <path d="M49.38 17.18c-.5.68-1.23 1.02-2.19 1.02-.66 0-1.19-.15-1.59-.44-.4-.29-.69-.72-.87-1.27-.18-.55-.27-1.26-.27-2.11V7.06c0-.88.09-1.6.26-2.15.17-.55.46-.97.85-1.25.39-.28.92-.42 1.58-.42.96 0 1.69.34 2.19 1.02.5.68.75 1.66.75 2.94v7.04c0 1.28-.24 2.25-.71 2.94zm-1.29-1.14c.17-.3.25-.73.25-1.3V6.69c0-.55-.08-.98-.25-1.27-.17-.29-.43-.44-.79-.44s-.63.15-.8.44c-.17.29-.26.72-.26 1.27v8.05c0 .57.09 1 .26 1.3.17.3.44.44.8.44s.62-.14.79-.44z" fill="#282828"/>
  <rect x="56" y="0" width="34" height="20" rx="4" fill="#FF0000"/>
  <path d="M69.5 6L75 10L69.5 14V6Z" fill="white"/>
</svg>
